<svg width="44" height="40" viewBox="0 0 44 40" fill="none" xmlns="http://www.w3.org/2000/svg">
<path d="M41.25 13.3275H36.3189L28.875 1.30223C28.6206 0.887913 28.3177 0.559428 27.984 0.335874C27.6503 0.112321 27.2924 -0.00184208 26.9311 2.2476e-05H7.61062C7.15893 0.00137351 6.71439 0.182447 6.3163 0.527242C5.91821 0.872037 5.57882 1.36994 5.32812 1.97694L0.230312 14.316C0.0805266 14.6817 0.000448349 15.1103 0 15.5488L0 28.8763C0 30.0545 0.289731 31.1845 0.805456 32.0176C1.32118 32.8508 2.02065 33.3188 2.75 33.3188H5.67188C5.97479 35.23 6.66284 36.924 7.62755 38.1337C8.59227 39.3434 9.77877 40 11 40C12.2212 40 13.4077 39.3434 14.3724 38.1337C15.3372 36.924 16.0252 35.23 16.3281 33.3188H27.6719C27.9748 35.23 28.6628 36.924 29.6276 38.1337C30.5923 39.3434 31.7788 40 33 40C34.2212 40 35.4077 39.3434 36.3724 38.1337C37.3372 36.924 38.0252 35.23 38.3281 33.3188H41.25C41.9793 33.3188 42.6788 32.8508 43.1945 32.0176C43.7103 31.1845 44 30.0545 44 28.8763V17.7701C44 16.5918 43.7103 15.4619 43.1945 14.6287C42.6788 13.7956 41.9793 13.3275 41.25 13.3275ZM7.61062 4.44253H26.9311L32.4311 13.3275H3.95312L7.61062 4.44253ZM11 35.5401C10.4561 35.5401 9.92442 35.2795 9.47218 34.7914C9.01995 34.3032 8.66747 33.6094 8.45933 32.7976C8.25119 31.9859 8.19673 31.0926 8.30284 30.2309C8.40895 29.3691 8.67086 28.5775 9.05546 27.9562C9.44005 27.3349 9.93005 26.9118 10.4635 26.7404C10.9969 26.569 11.5499 26.657 12.0524 26.9932C12.5549 27.3295 12.9844 27.8989 13.2865 28.6294C13.5887 29.36 13.75 30.2189 13.75 31.0976C13.75 32.2758 13.4603 33.4058 12.9445 34.2389C12.4288 35.072 11.7293 35.5401 11 35.5401ZM33 35.5401C32.4561 35.5401 31.9244 35.2795 31.4722 34.7914C31.0199 34.3032 30.6675 33.6094 30.4593 32.7976C30.2512 31.9859 30.1967 31.0926 30.3028 30.2309C30.4089 29.3691 30.6709 28.5775 31.0555 27.9562C31.4401 27.3349 31.9301 26.9118 32.4635 26.7404C32.997 26.569 33.5499 26.657 34.0524 26.9932C34.5549 27.3295 34.9844 27.8989 35.2865 28.6294C35.5887 29.36 35.75 30.2189 35.75 31.0976C35.75 32.2758 35.4603 33.4058 34.9445 34.2389C34.4288 35.072 33.7293 35.5401 33 35.5401ZM41.25 28.8763H38.3281C38.0252 26.9651 37.3372 25.2711 36.3724 24.0614C35.4077 22.8517 34.2212 22.1951 33 22.1951C31.7788 22.1951 30.5923 22.8517 29.6276 24.0614C28.6628 25.2711 27.9748 26.9651 27.6719 28.8763H16.3281C16.0252 26.9651 15.3372 25.2711 14.3724 24.0614C13.4077 22.8517 12.2212 22.1951 11 22.1951C9.77877 22.1951 8.59227 22.8517 7.62755 24.0614C6.66284 25.2711 5.97479 26.9651 5.67188 28.8763H2.75V17.7701H41.25V28.8763Z" fill="#444444"/>
</svg>
