<svg width="44" height="40" viewBox="0 0 44 40" fill="none" xmlns="http://www.w3.org/2000/svg">
<path d="M9.56523 11.2187V1.6249C9.56523 1.20083 9.76678 0.794132 10.1255 0.494268C10.4843 0.194405 10.9709 0.0259426 11.4783 0.0259426C11.9856 0.0259426 12.4722 0.194405 12.831 0.494268C13.1898 0.794132 13.3913 1.20083 13.3913 1.6249V11.2187C13.3913 11.6428 13.1898 12.0495 12.831 12.3493C12.4722 12.6492 11.9856 12.8176 11.4783 12.8176C10.9709 12.8176 10.4843 12.6492 10.1255 12.3493C9.76678 12.0495 9.56523 11.6428 9.56523 11.2187ZM44 1.6249V38.401C44 38.8251 43.7985 39.2318 43.4397 39.5317C43.0809 39.8315 42.5943 40 42.087 40C41.5796 40 41.093 39.8315 40.7342 39.5317C40.3755 39.2318 40.1739 38.8251 40.1739 38.401V28.8073H28.6957C28.1883 28.8073 27.7017 28.6388 27.3429 28.3389C26.9842 28.0391 26.7826 27.6324 26.7826 27.2083C26.8714 23.3781 27.4502 19.5669 28.5091 15.8397C30.8478 7.74693 35.2813 2.32245 41.3337 0.155859C41.6246 0.0517069 41.9419 0.00950167 42.2571 0.0330257C42.5723 0.0565498 42.8756 0.145068 43.1398 0.290648C43.4041 0.436229 43.621 0.634323 43.7711 0.867183C43.9212 1.10004 43.9999 1.36039 44 1.6249ZM40.1739 4.4031C32.4811 9.31392 30.9746 21.2762 30.6804 25.6093H40.1739V4.4031ZM21.0172 1.36307C20.9797 1.15312 20.8926 0.951503 20.7609 0.769983C20.6293 0.588462 20.4557 0.430673 20.2503 0.305819C20.0449 0.180964 19.8118 0.0915436 19.5646 0.0427728C19.3174 -0.00599795 19.0611 -0.0131425 18.8106 0.0217557C18.5601 0.0566538 18.3204 0.132896 18.1055 0.246036C17.8906 0.359176 17.7048 0.506947 17.5589 0.680732C17.4131 0.854516 17.3101 1.05084 17.256 1.25824C17.2018 1.46564 17.1977 1.67997 17.2437 1.88873L19.1304 11.3446C19.1304 13.0409 18.3242 14.6677 16.8892 15.8671C15.4541 17.0666 13.5078 17.7404 11.4783 17.7404C9.44879 17.7404 7.50243 17.0666 6.06737 15.8671C4.63231 14.6677 3.8261 13.0409 3.8261 11.3446L5.71045 1.88873C5.75648 1.67997 5.75231 1.46564 5.69819 1.25824C5.64407 1.05084 5.54108 0.854516 5.39523 0.680732C5.24938 0.506947 5.06359 0.359176 4.8487 0.246036C4.6338 0.132896 4.39411 0.0566538 4.14359 0.0217557C3.89307 -0.0131425 3.63674 -0.00599795 3.38956 0.0427728C3.14238 0.0915436 2.90929 0.180964 2.7039 0.305819C2.4985 0.430673 2.3249 0.588462 2.19322 0.769983C2.06155 0.951503 1.97444 1.15312 1.93697 1.36307L0.0239308 10.9569C0.00756319 11.0434 -0.000433305 11.131 1.8091e-05 11.2187C0.00384053 13.4848 0.965908 15.6769 2.71622 17.4076C4.46654 19.1383 6.89243 20.2961 9.56523 20.6765V38.401C9.56523 38.8251 9.76678 39.2318 10.1255 39.5317C10.4843 39.8315 10.9709 40 11.4783 40C11.9856 40 12.4722 39.8315 12.831 39.5317C13.1898 39.2318 13.3913 38.8251 13.3913 38.401V20.6765C16.0641 20.2961 18.49 19.1383 20.2403 17.4076C21.9906 15.6769 22.9527 13.4848 22.9565 11.2187C22.9562 11.131 22.9474 11.0434 22.9302 10.9569L21.0172 1.36307Z" fill="#444444"/>
</svg>
