<svg width="29" height="33" viewBox="0 0 29 33" fill="none" xmlns="http://www.w3.org/2000/svg">
<path d="M28.8037 26.2988C28.6133 27.8382 28.5293 28.5053 27.8184 30.0059L16.9033 32.2598C17.1542 30.6383 17.4887 29.388 18.0322 28.6377L28.8037 26.2988ZM13.5996 15.6836L16.8613 14.9756V4.66895C18.0767 3.30466 18.824 2.69234 20.291 1.91797V14.2305L28.8037 12.3828C28.6134 13.9222 28.5292 14.5893 27.8184 16.0898L20.291 17.6807V21.1426L28.8037 19.3418C28.6134 20.8811 28.5293 21.5482 27.8184 23.0488L20.291 24.6025V24.6357L16.8613 25.3438V18.4062L13.5996 19.0957V23.4688L13.5439 23.4795C12.7938 24.7949 11.7346 26.3751 10.7139 27.6367L0 29.6768C0.096063 28.2983 0.296563 27.5213 0.919922 26.1328L10.1699 24.1279V19.8203L1.59668 21.6338C1.69275 20.2556 1.89331 19.4792 2.5166 18.0908L10.1699 16.4287V2.75098C11.3853 1.38671 12.1326 0.774372 13.5996 0V15.6836Z" fill="#333333"/>
</svg>
