<svg width="44" height="40" viewBox="0 0 44 40" fill="none" xmlns="http://www.w3.org/2000/svg">
<path d="M43.6163 7.93806C43.4633 7.77166 43.272 7.63783 43.0559 7.546C42.8398 7.45417 42.6042 7.4066 42.3657 7.40664H9.50783L8.26945 1.21654C8.20124 0.875219 8.00342 0.566487 7.71049 0.34417C7.41755 0.121852 7.04808 5.01377e-05 6.66648 0H1.62945C1.19729 0 0.782835 0.156068 0.477254 0.433871C0.171673 0.711673 0 1.08845 0 1.48133C0 1.8742 0.171673 2.25098 0.477254 2.52878C0.782835 2.80659 1.19729 2.96265 1.62945 2.96265H5.29571L10.5018 28.9396C10.6552 29.71 11.0297 30.4299 11.5874 31.0264C10.8176 31.6801 10.262 32.5148 9.98212 33.438C9.70228 34.3612 9.70917 35.3369 10.002 36.2568C10.2949 37.1766 10.8623 38.0048 11.6412 38.6494C12.4202 39.2941 13.3804 39.73 14.4152 39.9088C15.4501 40.0876 16.5192 40.0024 17.504 39.6626C18.4889 39.3228 19.3509 38.7416 19.9946 37.9836C20.6383 37.2255 21.0385 36.3203 21.1508 35.3681C21.2631 34.4159 21.0832 33.4541 20.6309 32.5892H29.8821C29.5175 33.283 29.3289 34.0423 29.3301 34.8112C29.3301 35.8366 29.6646 36.839 30.2912 37.6916C30.9179 38.5442 31.8086 39.2088 32.8507 39.6012C33.8928 39.9936 35.0395 40.0963 36.1458 39.8962C37.252 39.6962 38.2682 39.2024 39.0658 38.4773C39.8634 37.7522 40.4066 36.8284 40.6266 35.8227C40.8467 34.8169 40.7337 33.7745 40.3021 32.8271C39.8704 31.8797 39.1395 31.07 38.2016 30.5003C37.2637 29.9306 36.1611 29.6265 35.0331 29.6265H15.3107C14.9291 29.6265 14.5596 29.5047 14.2667 29.2824C13.9738 29.0601 13.7759 28.7513 13.7077 28.41L13.0621 25.1826H36.6891C37.8339 25.1824 38.9423 24.817 39.8211 24.1501C40.6999 23.4831 41.2934 22.5569 41.498 21.5329L43.9747 9.15275C44.0167 8.93877 44.0063 8.71903 43.9443 8.5091C43.8824 8.29918 43.7704 8.10422 43.6163 7.93806ZM17.9239 34.8112C17.9239 35.2507 17.7806 35.6803 17.512 36.0457C17.2434 36.4111 16.8617 36.6959 16.4151 36.864C15.9685 37.0322 15.477 37.0762 15.0029 36.9905C14.5288 36.9047 14.0933 36.6931 13.7515 36.3824C13.4096 36.0716 13.1769 35.6757 13.0826 35.2447C12.9882 34.8137 13.0366 34.3669 13.2216 33.9609C13.4066 33.5549 13.7199 33.2078 14.1219 32.9637C14.5238 32.7195 14.9964 32.5892 15.4798 32.5892C16.128 32.5892 16.7497 32.8233 17.2081 33.24C17.6664 33.6567 17.9239 34.2219 17.9239 34.8112ZM37.4773 34.8112C37.4773 35.2507 37.334 35.6803 37.0654 36.0457C36.7968 36.4111 36.4151 36.6959 35.9685 36.864C35.5219 37.0322 35.0304 37.0762 34.5563 36.9905C34.0822 36.9047 33.6467 36.6931 33.3049 36.3824C32.963 36.0716 32.7302 35.6757 32.6359 35.2447C32.5416 34.8137 32.59 34.3669 32.775 33.9609C32.96 33.5549 33.2733 33.2078 33.6752 32.9637C34.0772 32.7195 34.5497 32.5892 35.0331 32.5892C35.6814 32.5892 36.3031 32.8233 36.7614 33.24C37.2198 33.6567 37.4773 34.2219 37.4773 34.8112ZM38.292 21.0034C38.2236 21.3456 38.0249 21.6551 37.7307 21.8775C37.4365 22.1 37.0656 22.2212 36.683 22.2199H12.4694L10.1005 10.3693H40.4124L38.292 21.0034Z" fill="#444444"/>
</svg>
